<?xml version="1.0" encoding="UTF-8"?>
<!DOCTYPE svg PUBLIC "-//W3C//DTD SVG 1.1//EN" "http://www.w3.org/Graphics/SVG/1.1/DTD/svg11.dtd">
<svg xmlns="http://www.w3.org/2000/svg" version="1.1" width="473px" height="419px" style="shape-rendering:geometricPrecision; text-rendering:geometricPrecision; image-rendering:optimizeQuality; fill-rule:evenodd; clip-rule:evenodd" xmlns:xlink="http://www.w3.org/1999/xlink">
<g><path style="opacity:0.985" fill="#010101" d="M 108.5,-0.5 C 121.167,-0.5 133.833,-0.5 146.5,-0.5C 176.353,5.51542 201.186,20.1821 221,43.5C 226.385,49.8838 231.385,56.5505 236,63.5C 251.078,40.0869 270.911,21.9202 295.5,9C 305.114,5.29477 314.78,2.12811 324.5,-0.5C 337.5,-0.5 350.5,-0.5 363.5,-0.5C 408.932,9.15596 441.432,35.156 461,77.5C 465.997,90.6401 469.83,103.973 472.5,117.5C 472.5,130.833 472.5,144.167 472.5,157.5C 468.585,177.737 461.752,197.07 452,215.5C 441.71,233.077 429.71,249.411 416,264.5C 397.108,284.061 377.608,302.894 357.5,321C 319.54,354.142 281.206,386.642 242.5,418.5C 238.167,418.5 233.833,418.5 229.5,418.5C 190.794,386.642 152.46,354.142 114.5,321C 83.8586,294.362 56.0253,265.196 31,233.5C 23.5313,222.01 16.8647,210.01 11,197.5C 6.00286,184.36 2.16953,171.027 -0.5,157.5C -0.5,144.167 -0.5,130.833 -0.5,117.5C 4.95128,81.4301 21.2846,51.2634 48.5,27C 66.2579,12.9152 86.2579,3.74857 108.5,-0.5 Z"/></g>
<g><path style="opacity:1" fill="#f1f1f1" d="M 147.5,34.5 C 150.215,36.0719 153.215,37.0719 156.5,37.5C 179.819,47.3151 197.652,63.3151 210,85.5C 216.161,96.819 221.494,108.486 226,120.5C 232.667,125.833 239.333,125.833 246,120.5C 253.074,101.013 262.741,83.0135 275,66.5C 311.572,27.2788 352.739,21.7788 398.5,50C 415.475,63.1441 427.142,79.9774 433.5,100.5C 433.41,103.152 434.076,105.485 435.5,107.5C 440.024,124.658 440.691,141.991 437.5,159.5C 436.232,161.905 435.565,164.572 435.5,167.5C 431.711,180.08 426.544,192.08 420,203.5C 410.197,219.309 398.864,233.975 386,247.5C 370.107,264.062 353.607,279.895 336.5,295C 303.261,323.86 269.761,352.36 236,380.5C 194.532,346.166 153.699,310.999 113.5,275C 88.9593,252.812 67.7926,227.979 50,200.5C 44.3753,189.923 39.8753,178.923 36.5,167.5C 36.4349,164.572 35.7682,161.905 34.5,159.5C 31.3091,141.991 31.9758,124.658 36.5,107.5C 37.9238,105.485 38.5905,103.152 38.5,100.5C 57.2778,49.6075 93.6111,27.6075 147.5,34.5 Z"/></g>
<g><path style="opacity:1" fill="#545454" d="M 147.5,34.5 C 150.916,34.5275 153.916,35.5275 156.5,37.5C 153.215,37.0719 150.215,36.0719 147.5,34.5 Z"/></g>
<g><path style="opacity:1" fill="#8d8d8d" d="M 38.5,100.5 C 38.5905,103.152 37.9238,105.485 36.5,107.5C 36.4095,104.848 37.0762,102.515 38.5,100.5 Z"/></g>
<g><path style="opacity:1" fill="#8b8b8b" d="M 433.5,100.5 C 434.924,102.515 435.59,104.848 435.5,107.5C 434.076,105.485 433.41,103.152 433.5,100.5 Z"/></g>
<g><path style="opacity:1" fill="#585858" d="M 34.5,159.5 C 35.7682,161.905 36.4349,164.572 36.5,167.5C 34.9605,165.162 34.2938,162.495 34.5,159.5 Z"/></g>
<g><path style="opacity:1" fill="#565656" d="M 437.5,159.5 C 437.706,162.495 437.04,165.162 435.5,167.5C 435.565,164.572 436.232,161.905 437.5,159.5 Z"/></g>
</svg>
