<?xml version="1.0" encoding="UTF-8"?>
<!DOCTYPE svg PUBLIC "-//W3C//DTD SVG 1.1//EN" "http://www.w3.org/Graphics/SVG/1.1/DTD/svg11.dtd">
<svg xmlns="http://www.w3.org/2000/svg" version="1.1" width="473px" height="419px" style="shape-rendering:geometricPrecision; text-rendering:geometricPrecision; image-rendering:optimizeQuality; fill-rule:evenodd; clip-rule:evenodd" xmlns:xlink="http://www.w3.org/1999/xlink">
<g><path style="opacity:0.985" fill="#a13847" d="M 108.5,-0.5 C 121.167,-0.5 133.833,-0.5 146.5,-0.5C 176.353,5.51542 201.186,20.1821 221,43.5C 226.385,49.8838 231.385,56.5505 236,63.5C 251.078,40.0869 270.911,21.9202 295.5,9C 305.114,5.29477 314.78,2.12811 324.5,-0.5C 337.5,-0.5 350.5,-0.5 363.5,-0.5C 408.932,9.15596 441.432,35.156 461,77.5C 465.997,90.6401 469.83,103.973 472.5,117.5C 472.5,130.833 472.5,144.167 472.5,157.5C 468.585,177.737 461.752,197.07 452,215.5C 441.71,233.077 429.71,249.411 416,264.5C 397.108,284.061 377.608,302.894 357.5,321C 319.54,354.142 281.206,386.642 242.5,418.5C 238.167,418.5 233.833,418.5 229.5,418.5C 190.794,386.642 152.46,354.142 114.5,321C 83.8586,294.362 56.0253,265.196 31,233.5C 23.5313,222.01 16.8647,210.01 11,197.5C 6.00286,184.36 2.16953,171.027 -0.5,157.5C -0.5,144.167 -0.5,130.833 -0.5,117.5C 4.95128,81.4301 21.2846,51.2634 48.5,27C 66.2579,12.9152 86.2579,3.74857 108.5,-0.5 Z"/></g>
<g><path style="opacity:1" fill="#da203b" d="M 436.5,164.5 C 435.076,166.515 434.41,168.848 434.5,171.5C 424.494,198.517 409.661,222.517 390,243.5C 374.138,259.696 357.971,275.529 341.5,291C 306.054,320.812 270.887,350.978 236,381.5C 201.128,350.959 165.961,320.792 130.5,291C 114.082,275.584 97.9154,259.75 82,243.5C 62.3391,222.517 47.5057,198.517 37.5,171.5C 37.5905,168.848 36.9238,166.515 35.5,164.5C 25.952,120.315 37.6187,82.815 70.5,52C 97.597,31.7346 127.264,27.068 159.5,38C 174.375,45.2134 187.208,55.0467 198,67.5C 209.873,82.9098 218.873,99.9098 225,118.5C 232.333,126.5 239.667,126.5 247,118.5C 253.127,99.9098 262.127,82.9098 274,67.5C 308.459,28.2892 348.625,21.4558 394.5,47C 427.993,72.8406 442.826,107.007 439,149.5C 438.818,154.747 437.984,159.747 436.5,164.5 Z"/></g>
<g><path style="opacity:1" fill="#a13847" d="M 35.5,164.5 C 36.9238,166.515 37.5905,168.848 37.5,171.5C 36.0762,169.485 35.4095,167.152 35.5,164.5 Z"/></g>
<g><path style="opacity:1" fill="#a13847" d="M 436.5,164.5 C 436.59,167.152 435.924,169.485 434.5,171.5C 434.41,168.848 435.076,166.515 436.5,164.5 Z"/></g>
</svg>
